<mxfile host="app.diagrams.net" modified="2020-08-25T13:14:34.422Z" agent="5.0 (Windows NT 10.0; Win64; x64) AppleWebKit/537.36 (KHTML, like Gecko) Chrome/84.0.4147.135 Safari/537.36" etag="bPSKV_QyNmnCVnQPXQda" version="13.6.4" type="github">
  <diagram id="fceYZK4B8EAD64JDlkFU" name="Page-1">
    <mxGraphModel dx="593" dy="285" grid="1" gridSize="10" guides="1" tooltips="1" connect="1" arrows="1" fold="1" page="1" pageScale="1" pageWidth="850" pageHeight="1100" math="0" shadow="0" extFonts="Old Standard TT^https://fonts.googleapis.com/css?family=Old+Standard+TT">
      <root>
        <mxCell id="0" />
        <mxCell id="1" parent="0" />
        <mxCell id="AMwVumv2ms9iytiUo9Ck-6" value="&lt;font face=&quot;Old Standard TT&quot; size=&quot;1&quot;&gt;&lt;b style=&quot;font-size: 13px&quot;&gt;Administrator&lt;/b&gt;&lt;/font&gt;" style="shape=umlActor;html=1;verticalLabelPosition=bottom;verticalAlign=top;align=center;" parent="1" vertex="1">
          <mxGeometry x="130" y="145" width="30" height="60" as="geometry" />
        </mxCell>
        <mxCell id="AMwVumv2ms9iytiUo9Ck-14" value="&lt;font face=&quot;Old Standard TT&quot;&gt;&lt;span style=&quot;font-size: 14px&quot;&gt;&lt;b&gt;Authenticate&lt;/b&gt;&lt;/span&gt;&lt;/font&gt;" style="ellipse;whiteSpace=wrap;html=1;fillColor=none;" parent="1" vertex="1">
          <mxGeometry x="610" y="140" width="140" height="70" as="geometry" />
        </mxCell>
        <mxCell id="AMwVumv2ms9iytiUo9Ck-17" value="&lt;font face=&quot;Old Standard TT&quot; size=&quot;1&quot;&gt;&lt;b style=&quot;font-size: 14px&quot;&gt;Manage Users&lt;/b&gt;&lt;/font&gt;" style="ellipse;whiteSpace=wrap;html=1;fillColor=none;" parent="1" vertex="1">
          <mxGeometry x="355" y="140" width="140" height="70" as="geometry" />
        </mxCell>
        <mxCell id="AMwVumv2ms9iytiUo9Ck-43" value="&lt;font style=&quot;font-size: 12px&quot;&gt;&amp;lt;&amp;lt;&lt;font face=&quot;Old Standard TT&quot; style=&quot;font-size: 12px&quot;&gt;include&lt;/font&gt;&amp;gt;&amp;gt;&lt;/font&gt;" style="edgeStyle=none;html=1;endArrow=open;verticalAlign=bottom;dashed=1;labelBackgroundColor=none;exitX=1;exitY=0.5;exitDx=0;exitDy=0;entryX=0;entryY=0.5;entryDx=0;entryDy=0;" parent="1" source="AMwVumv2ms9iytiUo9Ck-17" target="AMwVumv2ms9iytiUo9Ck-14" edge="1">
          <mxGeometry x="-0.0435" width="160" relative="1" as="geometry">
            <mxPoint x="600" y="190" as="sourcePoint" />
            <mxPoint x="650" y="175" as="targetPoint" />
            <Array as="points" />
            <mxPoint as="offset" />
          </mxGeometry>
        </mxCell>
        <mxCell id="AMwVumv2ms9iytiUo9Ck-51" value="" style="edgeStyle=none;html=1;endArrow=none;verticalAlign=bottom;entryX=0;entryY=0.5;entryDx=0;entryDy=0;" parent="1" target="AMwVumv2ms9iytiUo9Ck-17" edge="1">
          <mxGeometry width="160" relative="1" as="geometry">
            <mxPoint x="180" y="175" as="sourcePoint" />
            <mxPoint x="330" y="95" as="targetPoint" />
          </mxGeometry>
        </mxCell>
        <mxCell id="AMwVumv2ms9iytiUo9Ck-61" value="&lt;font face=&quot;Old Standard TT&quot; size=&quot;1&quot;&gt;&lt;b style=&quot;font-size: 14px&quot;&gt;Manage Permissions&lt;/b&gt;&lt;/font&gt;" style="ellipse;whiteSpace=wrap;html=1;fillColor=none;" parent="1" vertex="1">
          <mxGeometry x="353" y="270" width="145" height="60" as="geometry" />
        </mxCell>
        <mxCell id="AMwVumv2ms9iytiUo9Ck-68" value="&amp;lt;&amp;lt;&lt;font face=&quot;Old Standard TT&quot; style=&quot;font-size: 12px&quot;&gt;extend&lt;/font&gt;&amp;gt;&amp;gt;" style="edgeStyle=none;html=1;startArrow=open;endArrow=none;startSize=12;verticalAlign=bottom;dashed=1;labelBackgroundColor=none;entryX=0.5;entryY=0;entryDx=0;entryDy=0;exitX=0.5;exitY=1;exitDx=0;exitDy=0;" parent="1" source="AMwVumv2ms9iytiUo9Ck-17" target="AMwVumv2ms9iytiUo9Ck-61" edge="1">
          <mxGeometry x="0.6763" y="35" width="160" relative="1" as="geometry">
            <mxPoint x="410" y="211" as="sourcePoint" />
            <mxPoint x="550" y="300" as="targetPoint" />
            <mxPoint as="offset" />
          </mxGeometry>
        </mxCell>
        <mxCell id="AMwVumv2ms9iytiUo9Ck-69" value="&lt;font face=&quot;Old Standard TT&quot;&gt;&lt;span style=&quot;font-size: 14px&quot;&gt;&lt;b&gt;Validate Admin&lt;/b&gt;&lt;/span&gt;&lt;/font&gt;" style="ellipse;whiteSpace=wrap;html=1;fillColor=none;" parent="1" vertex="1">
          <mxGeometry x="610" y="230" width="140" height="70" as="geometry" />
        </mxCell>
        <mxCell id="JxG0m1Q7_KkDs0h0IsH7-1" value="&lt;font style=&quot;font-size: 12px&quot;&gt;&amp;lt;&amp;lt;&lt;font face=&quot;Old Standard TT&quot; style=&quot;font-size: 12px&quot;&gt;include&lt;/font&gt;&amp;gt;&amp;gt;&lt;/font&gt;" style="edgeStyle=none;html=1;endArrow=open;verticalAlign=bottom;dashed=1;labelBackgroundColor=none;exitX=0.969;exitY=0.712;exitDx=0;exitDy=0;entryX=0;entryY=0;entryDx=0;entryDy=0;exitPerimeter=0;" parent="1" source="AMwVumv2ms9iytiUo9Ck-17" target="AMwVumv2ms9iytiUo9Ck-69" edge="1">
          <mxGeometry x="0.395" y="5" width="160" relative="1" as="geometry">
            <mxPoint x="505" y="185" as="sourcePoint" />
            <mxPoint x="620" y="185" as="targetPoint" />
            <Array as="points" />
            <mxPoint as="offset" />
          </mxGeometry>
        </mxCell>
      </root>
    </mxGraphModel>
  </diagram>
</mxfile>
